<?xml version="1.0" standalone="no"?>
<!DOCTYPE svg PUBLIC "-//W3C//DTD SVG 20010904//EN"
 "http://www.w3.org/TR/2001/REC-SVG-20010904/DTD/svg10.dtd">
<svg version="1.0" xmlns="http://www.w3.org/2000/svg"
 width="50.000000pt" height="50.000000pt" viewBox="0 0 50.000000 50.000000"
 preserveAspectRatio="xMidYMid meet">

<g transform="translate(0.000000,50.000000) scale(0.100000,-0.100000)"
fill="#000000" stroke="none">
<path d="M70 250 l0 -230 180 0 180 0 0 163 0 163 -68 67 -68 67 -112 0 -112
0 0 -230z m210 145 l0 -65 65 0 65 0 0 -145 0 -145 -160 0 -160 0 0 210 0 210
95 0 95 0 0 -65z m110 -42 c0 -2 -20 -3 -45 -3 l-45 0 0 47 0 47 45 -44 c25
-24 45 -45 45 -47z"/>
<path d="M168 235 c-13 -30 3 -75 27 -75 19 0 20 16 0 24 -20 7 -19 35 2 58
15 17 15 18 -1 18 -9 0 -22 -11 -28 -25z"/>
<path d="M223 245 c-3 -9 2 -24 11 -34 20 -22 20 -31 1 -31 -8 0 -15 -5 -15
-11 0 -18 45 -5 48 14 2 10 -4 27 -13 37 -15 17 -15 19 2 29 16 10 16 10 -5
11 -12 0 -25 -7 -29 -15z"/>
<path d="M280 248 c0 -26 21 -88 30 -88 5 0 14 17 19 38 14 47 14 62 1 62 -5
0 -10 -12 -10 -26 0 -14 -4 -23 -10 -19 -5 3 -10 15 -10 26 0 10 -4 19 -10 19
-5 0 -10 -6 -10 -12z"/>
</g>
</svg>
