<?xml version="1.0" standalone="no"?>
<!DOCTYPE svg PUBLIC "-//W3C//DTD SVG 20010904//EN"
 "http://www.w3.org/TR/2001/REC-SVG-20010904/DTD/svg10.dtd">
<svg version="1.0" xmlns="http://www.w3.org/2000/svg"
 width="64.000000pt" height="64.000000pt" viewBox="0 0 64.000000 64.000000"
 preserveAspectRatio="xMidYMid meet">

<g transform="translate(0.000000,64.000000) scale(0.100000,-0.100000)"
fill="#000000" stroke="none">
<path d="M146 599 c-19 -15 -26 -30 -26 -54 0 -27 -4 -34 -22 -37 -22 -3 -23
-7 -26 -115 l-3 -113 26 0 25 0 0 -109 c0 -106 1 -110 26 -130 25 -19 40 -21
196 -21 164 0 201 6 220 34 4 6 8 103 8 216 l0 206 -73 72 -72 72 -126 0
c-113 0 -129 -2 -153 -21z m264 -63 c0 -66 21 -86 87 -86 l43 0 -2 -197 -3
-198 -190 0 -190 0 -3 112 -3 112 98 3 98 3 0 110 0 110 -97 3 -98 3 0 33 c0
18 3 36 7 39 3 4 62 7 130 7 l123 0 0 -54z m74 -11 l37 -45 -40 0 -41 0 0 45
c0 25 2 45 4 45 2 0 20 -20 40 -45z m-164 -130 l0 -85 -110 0 -110 0 0 85 0
85 110 0 110 0 0 -85z"/>
<path d="M193 228 c2 -9 26 -13 72 -13 46 0 70 4 73 13 3 9 -16 12 -73 12 -57
0 -76 -3 -72 -12z"/>
<path d="M190 170 c0 -6 58 -10 155 -10 97 0 155 4 155 10 0 6 -58 10 -155 10
-97 0 -155 -4 -155 -10z"/>
<path d="M190 120 c0 -6 58 -10 155 -10 97 0 155 4 155 10 0 6 -58 10 -155 10
-97 0 -155 -4 -155 -10z"/>
<path d="M197 453 c-4 -3 -7 -22 -7 -40 0 -30 -3 -33 -20 -28 -28 9 -25 -7 8
-38 l28 -27 34 32 c22 20 30 33 22 36 -7 2 -19 -2 -27 -8 -13 -11 -15 -6 -15
34 0 43 -7 55 -23 39z"/>
</g>
</svg>
